<svg width="32" height="32" viewBox="0 0 32 32" fill="none" xmlns="http://www.w3.org/2000/svg">
<path d="M12 14.6667V8C12 6.93913 12.4214 5.92172 13.1715 5.17157C13.9217 4.42143 14.9391 4 16 4C17.0608 4 18.0782 4.42143 18.8284 5.17157C19.5785 5.92172 20 6.93913 20 8V14.6667M8.44128 10.6667H23.5599C23.9444 10.6666 24.3244 10.7497 24.6738 10.9103C25.0231 11.0708 25.3336 11.305 25.584 11.5968C25.8344 11.8886 26.0187 12.2311 26.1243 12.6008C26.23 12.9705 26.2544 13.3586 26.1959 13.7387L24.5226 24.608C24.3773 25.5526 23.8987 26.414 23.1733 27.0362C22.4479 27.6584 21.5236 28.0003 20.5679 28H11.4319C10.4765 28 9.55258 27.6579 8.82745 27.0357C8.10232 26.4136 7.62384 25.5524 7.47861 24.608L5.80528 13.7387C5.74684 13.3586 5.77126 12.9705 5.87688 12.6008C5.98251 12.2311 6.16683 11.8886 6.4172 11.5968C6.66758 11.305 6.9781 11.0708 7.32747 10.9103C7.67683 10.7497 8.05679 10.6666 8.44128 10.6667Z" stroke="black" stroke-width="2" stroke-linecap="round" stroke-linejoin="round"/>
</svg>
