<svg width="32" height="32" viewBox="0 0 32 32" fill="none" xmlns="http://www.w3.org/2000/svg">
<path fill-rule="evenodd" clip-rule="evenodd" d="M4 27.5676V12H28V27.5676C27.9978 28.2121 27.7098 28.8297 27.1988 29.2854C26.6878 29.7412 25.9954 29.9981 25.2727 30H6.72727C6.00462 29.9981 5.31218 29.7412 4.80118 29.2854C4.29019 28.8297 4.00216 28.2121 4 27.5676ZM17 18C17 17.4477 16.5523 17 16 17C15.4477 17 15 17.4477 15 18V20H13C12.4477 20 12 20.4477 12 21C12 21.5523 12.4477 22 13 22H15V24C15 24.5523 15.4477 25 16 25C16.5523 25 17 24.5523 17 24V22H19C19.5523 22 20 21.5523 20 21C20 20.4477 19.5523 20 19 20H17V18Z" fill="white"/>
<path d="M27.25 5H4.75C3.7835 5 3 5.6268 3 6.4V7.6C3 8.3732 3.7835 9 4.75 9H27.25C28.2165 9 29 8.3732 29 7.6V6.4C29 5.6268 28.2165 5 27.25 5Z" fill="white" stroke="white" stroke-width="2" stroke-linejoin="round"/>
</svg>
