<svg width="16" height="16" viewBox="0 0 16 16" fill="none" xmlns="http://www.w3.org/2000/svg">
<path d="M5.33333 14H10.6667M8 10.6667V14M8 10.6667C10.2093 10.6667 12 9.34133 12 7.33333L11.3333 3.33333M8 10.6667C5.79067 10.6667 4 9.34133 4 7.33333L4.66667 3.33333M11.3333 3.33333C11.3333 3.68696 10.9821 4.02609 10.357 4.27614C9.7319 4.52619 8.88406 4.66667 8 4.66667C7.11595 4.66667 6.2681 4.52619 5.64298 4.27614C5.01786 4.02609 4.66667 3.68696 4.66667 3.33333M11.3333 3.33333C11.3333 2.97971 10.9821 2.64057 10.357 2.39052C9.7319 2.14048 8.88406 2 8 2C7.11595 2 6.2681 2.14048 5.64298 2.39052C5.01786 2.64057 4.66667 2.97971 4.66667 3.33333" stroke="black" stroke-linecap="round" stroke-linejoin="round"/>
</svg>
