<svg width="32" height="32" viewBox="0 0 32 32" fill="none" xmlns="http://www.w3.org/2000/svg">
<path d="M26.0001 16.7627L16.0001 26.6667L6.00006 16.7627C5.34046 16.1209 4.82091 15.3494 4.47412 14.4969C4.12733 13.6444 3.9608 12.7294 3.98504 11.8093C4.00927 10.8893 4.22374 9.98426 4.61493 9.1512C5.00612 8.31813 5.56557 7.57509 6.25804 6.96886C6.95051 6.36262 7.761 5.90634 8.63847 5.62872C9.51595 5.35111 10.4414 5.2582 11.3565 5.35582C12.2717 5.45344 13.1567 5.73949 13.9559 6.19596C14.7551 6.65242 15.4511 7.26942 16.0001 8.00808C16.5514 7.27478 17.2482 6.66318 18.0469 6.21156C18.8455 5.75993 19.7287 5.47802 20.6413 5.38344C21.5539 5.28887 22.4762 5.38368 23.3504 5.66194C24.2247 5.9402 25.0321 6.39591 25.7221 7.00057C26.4122 7.60522 26.97 8.3458 27.3606 9.17594C27.7513 10.0061 27.9664 10.9079 27.9925 11.825C28.0186 12.7421 27.8551 13.6547 27.5122 14.5058C27.1694 15.3568 26.6546 16.1278 26.0001 16.7708" stroke="black" stroke-width="2" stroke-linecap="round" stroke-linejoin="round"/>
</svg>
