<svg width="32" height="32" viewBox="0 0 32 32" fill="none" xmlns="http://www.w3.org/2000/svg">
<path d="M26.0001 16.7627L16.0001 26.6667L6.00006 16.7627C5.34046 16.1209 4.82091 15.3494 4.47412 14.4969C4.12733 13.6444 3.9608 12.7293 3.98504 11.8093C4.00927 10.8893 4.22374 9.98423 4.61493 9.15117C5.00612 8.3181 5.56557 7.57506 6.25804 6.96883C6.95051 6.36259 7.761 5.9063 8.63847 5.62869C9.51595 5.35108 10.4414 5.25816 11.3565 5.35579C12.2717 5.45341 13.1567 5.73946 13.9559 6.19593C14.7551 6.65239 15.4511 7.26939 16.0001 8.00805C16.5514 7.27475 17.2482 6.66315 18.0469 6.21153C18.8455 5.7599 19.7287 5.47799 20.6413 5.38341C21.5539 5.28884 22.4762 5.38365 23.3504 5.66191C24.2247 5.94017 25.0321 6.39588 25.7221 7.00054C26.4122 7.60519 26.97 8.34577 27.3606 9.17591C27.7513 10.0061 27.9664 10.9079 27.9925 11.825C28.0186 12.7421 27.8551 13.6547 27.5122 14.5057C27.1694 15.3567 26.6546 16.1278 26.0001 16.7707" fill="#FF3B30"/>
<path d="M26.0001 16.7627L16.0001 26.6667L6.00006 16.7627C5.34046 16.1209 4.82091 15.3494 4.47412 14.4969C4.12733 13.6444 3.9608 12.7293 3.98504 11.8093C4.00927 10.8893 4.22374 9.98423 4.61493 9.15117C5.00612 8.3181 5.56557 7.57506 6.25804 6.96883C6.95051 6.36259 7.761 5.9063 8.63847 5.62869C9.51595 5.35108 10.4414 5.25816 11.3565 5.35579C12.2717 5.45341 13.1567 5.73946 13.9559 6.19593C14.7551 6.65239 15.4511 7.26939 16.0001 8.00805C16.5514 7.27475 17.2482 6.66315 18.0469 6.21153C18.8455 5.7599 19.7287 5.47799 20.6413 5.38341C21.5539 5.28884 22.4762 5.38365 23.3504 5.66191C24.2247 5.94017 25.0321 6.39588 25.7221 7.00054C26.4122 7.60519 26.97 8.34577 27.3606 9.17591C27.7513 10.0061 27.9664 10.9079 27.9925 11.825C28.0186 12.7421 27.8551 13.6547 27.5122 14.5057C27.1694 15.3567 26.6546 16.1278 26.0001 16.7707" stroke="#FF3B30" stroke-width="2" stroke-linecap="round" stroke-linejoin="round"/>
</svg>
