<svg width="32" height="32" viewBox="0 0 32 32" fill="none" xmlns="http://www.w3.org/2000/svg">
<path d="M5.33337 17.3333H9.33337L13.3334 21.3333H18.6667L22.6667 17.3333H26.6667M5.33337 8.00001C5.33337 7.29277 5.61433 6.61449 6.11442 6.11439C6.61452 5.61429 7.2928 5.33334 8.00004 5.33334H24C24.7073 5.33334 25.3856 5.61429 25.8857 6.11439C26.3858 6.61449 26.6667 7.29277 26.6667 8.00001V24C26.6667 24.7073 26.3858 25.3855 25.8857 25.8856C25.3856 26.3857 24.7073 26.6667 24 26.6667H8.00004C7.2928 26.6667 6.61452 26.3857 6.11442 25.8856C5.61433 25.3855 5.33337 24.7073 5.33337 24V8.00001Z" stroke="black" stroke-width="2" stroke-linecap="round" stroke-linejoin="round"/>
</svg>
