<svg width="16" height="16" viewBox="0 0 16 16" fill="none" xmlns="http://www.w3.org/2000/svg">
<path d="M12 2.66666C12.1004 2.66667 12.1994 2.68933 12.2898 2.73296C12.3802 2.7766 12.4596 2.84008 12.522 2.91866L12.5713 2.99066L14.5713 6.324C14.6368 6.4333 14.6696 6.55908 14.6659 6.68645C14.6621 6.81382 14.6219 6.93744 14.55 7.04266L14.4967 7.11133L8.81 13.4667C8.70441 13.5744 8.57837 13.66 8.43928 13.7183C8.30019 13.7767 8.15085 13.8067 8 13.8067C7.73334 13.8067 7.47667 13.7133 7.26 13.5287L7.17 13.4447L1.50334 7.11133C1.41808 7.01621 1.36196 6.8986 1.34163 6.77249C1.3213 6.64638 1.33763 6.51709 1.38867 6.4L1.42867 6.32333L3.43734 2.97533L3.48 2.91533C3.51052 2.87737 3.54518 2.84294 3.58334 2.81266L3.64267 2.77L3.70134 2.73666L3.73467 2.72133L3.77467 2.70466L3.84734 2.68333L3.922 2.67L4 2.66666H12ZM6.076 5.29533C5.92445 5.20457 5.74306 5.17768 5.57169 5.22055C5.40032 5.26342 5.25297 5.37256 5.162 5.524L4.762 6.19066L4.722 6.268C4.67098 6.38565 4.65497 6.51553 4.6759 6.64205C4.69683 6.76857 4.75381 6.88637 4.84 6.98133L6.17334 8.448L6.23334 8.50666C6.35674 8.61226 6.51445 8.66918 6.67686 8.66673C6.83926 8.66427 6.99518 8.60261 7.11534 8.49333L7.17334 8.43333C7.27894 8.30992 7.33585 8.15221 7.3334 7.98981C7.33094 7.82741 7.26928 7.67149 7.16 7.55133L6.15934 6.45133L6.30467 6.20933L6.34134 6.14066C6.40833 5.99172 6.41832 5.82337 6.36941 5.66754C6.3205 5.51172 6.21609 5.37927 6.076 5.29533Z" stroke="black" stroke-linecap="round" stroke-linejoin="round"/>
</svg>
