<svg width="16" height="16" viewBox="0 0 16 16" fill="none" xmlns="http://www.w3.org/2000/svg">
<path d="M11.6667 4.33333L11 5M11.3334 4.66667C9.77804 2.88867 9.00004 2 8.00004 2C7.00004 2 6.66671 2.66667 6.66671 3.33333C6.66671 6 12.1074 8.93733 10.6667 10.6667C9.96271 11.512 8.42471 11.5233 6.83337 11.2053M3.82604 10.2833C2.89737 9.90667 1.33337 9 1.33337 8M13 6.33333L14 7.33333M2.00006 14C1.55539 13.5553 4.17473 9.84267 9.85673 2.86067C10.0593 2.61195 10.3109 2.40766 10.5959 2.26055C10.8809 2.11344 11.1932 2.02667 11.5133 2.00566C11.8333 1.98465 12.1543 2.02986 12.4561 2.13845C12.7579 2.24704 13.034 2.41669 13.2673 2.63681C13.5006 2.85692 13.6861 3.12276 13.812 3.41775C13.9379 3.71273 14.0017 4.03051 13.9994 4.35125C13.997 4.67198 13.9285 4.98878 13.7982 5.28187C13.6679 5.57496 13.4786 5.83803 13.2421 6.05467C6.19206 11.796 2.44473 14.4447 2.00006 14Z" stroke="black" stroke-linecap="round" stroke-linejoin="round"/>
</svg>
