<svg width="64" height="92" viewBox="0 0 64 92" fill="none" xmlns="http://www.w3.org/2000/svg">
<ellipse cx="31.5242" cy="3.48534" rx="15.9997" ry="3.48509" fill="white"/>
<path fill-rule="evenodd" clip-rule="evenodd" d="M63.6821 62.098C63.6821 78.5897 49.4264 91.9588 31.8411 91.9588C20.5843 91.9588 10.6918 86.4807 5.02957 78.2121C6.98406 76.8762 8.63316 74.7167 10.2361 72.0797C14.0322 67.4493 16.6077 65.9516 18.7853 65.7534C21.0707 65.5454 23.5528 66.6742 27.4798 69.1072L27.5448 69.1475L27.6127 69.1826C33.382 72.1679 38.0639 73.8238 42.2676 73.1358C46.5862 72.429 49.827 69.3693 53.0236 64.5719C56.3134 60.6566 58.7304 58.7413 61.2767 58.2071C61.9315 58.0697 62.6301 58.0168 63.394 58.0635C63.584 59.3829 63.6821 60.7297 63.6821 62.098ZM62.5243 54.0906C61.827 54.1096 61.1413 54.1889 60.4634 54.3311C56.4829 55.1663 53.3019 58.0707 49.9174 62.1125L49.8464 62.1973L49.7852 62.2895C46.7367 66.887 44.2927 68.7913 41.628 69.2275C38.8314 69.6852 35.207 68.6467 29.4999 65.7C25.7195 63.3612 22.1823 61.4675 18.4263 61.8094C14.5573 62.1616 11.0675 64.7931 7.08017 69.6829L6.99196 69.791L6.9198 69.9105C5.39947 72.4277 4.14666 73.9401 3.01012 74.7882C2.3081 73.388 1.71867 71.9283 1.25274 70.4193C3.99853 69.334 6.12546 66.7415 8.17671 63.3668C11.9729 58.7364 14.5484 57.2388 16.726 57.0405C19.0114 56.8325 21.4934 57.9613 25.4205 60.3944L25.4854 60.4346L25.5533 60.4697C31.3226 63.455 36.0046 65.1109 40.2083 64.4229C44.5268 63.7161 47.7677 60.6564 50.9642 55.859C54.2541 51.9437 56.6711 50.0284 59.2173 49.4942C59.6672 49.3998 60.1376 49.3453 60.6357 49.3356C61.4026 50.8546 62.0368 52.444 62.5243 54.0906ZM0 62.098C0 63.5849 0.11589 65.0465 0.339663 66.4751C1.63929 65.7454 3.06287 64.1739 4.86046 61.1976L4.93262 61.0781L5.02083 60.97C9.0082 56.0802 12.498 53.4487 16.367 53.0965C20.123 52.7546 23.6602 54.6483 27.4406 56.9871C33.1477 59.9338 36.772 60.9723 39.5687 60.5146C42.2334 60.0785 44.6774 58.1741 47.7259 53.5766L47.787 53.4844L47.858 53.3996C51.2411 49.3596 54.4208 46.4559 58.3989 45.6193C52.6978 37.5546 42.9316 32.2371 31.8411 32.2371C14.2557 32.2371 0 45.6062 0 62.098Z" fill="white"/>
<path fill-rule="evenodd" clip-rule="evenodd" d="M15.6355 4.43136L15.4849 3.56421H47.4843L47.3458 4.39768C42.0683 6.38493 37.6417 7.40811 32.8216 7.4445C27.9984 7.48092 22.685 6.53018 15.6355 4.43136ZM16.2392 7.90712L21.0431 35.5637H42.1643L46.7494 7.98473C41.9456 9.66115 37.5952 10.5768 32.8455 10.6127C27.9592 10.6496 22.7328 9.7545 16.2392 7.90712Z" fill="white"/>
</svg>
