<svg width="16" height="16" viewBox="0 0 16 16" fill="none" xmlns="http://www.w3.org/2000/svg">
<path d="M8 8H10C11.0609 8 12.0783 7.57857 12.8284 6.82843C13.5786 6.07828 14 5.06087 14 4V3.33333H12C10.9391 3.33333 9.92172 3.75476 9.17157 4.50491C8.42143 5.25505 8 6.27247 8 7.33333H6C4.93913 7.33333 3.92172 6.91191 3.17157 6.16176C2.42143 5.41161 2 4.3942 2 3.33333V2H4C5.06087 2 6.07828 2.42143 6.82843 3.17157C7.57857 3.92172 8 4.93913 8 6V10M4.66667 10H11.3333V12.6667C11.3333 13.0203 11.1929 13.3594 10.9428 13.6095C10.6928 13.8595 10.3536 14 10 14H6C5.64638 14 5.30724 13.8595 5.05719 13.6095C4.80714 13.3594 4.66667 13.0203 4.66667 12.6667V10Z" stroke="black" stroke-linecap="round" stroke-linejoin="round"/>
</svg>
