<svg width="16" height="16" viewBox="0 0 16 16" fill="none" xmlns="http://www.w3.org/2000/svg">
<path d="M5.4953 4.89332L1.24197 5.50999L1.16663 5.52532C1.05259 5.55559 0.948629 5.61559 0.865361 5.69919C0.782092 5.78278 0.722502 5.88698 0.692674 6.00114C0.662847 6.1153 0.663851 6.23532 0.695584 6.34897C0.727318 6.46261 0.788644 6.5658 0.873299 6.64799L3.95463 9.64732L3.22797 13.884L3.2193 13.9573C3.21232 14.0753 3.23681 14.193 3.29027 14.2983C3.34372 14.4037 3.42422 14.493 3.52352 14.557C3.62282 14.621 3.73736 14.6575 3.8554 14.6627C3.97344 14.6679 4.09074 14.6417 4.1953 14.5867L7.9993 12.5867L11.7946 14.5867L11.8613 14.6173C11.9713 14.6607 12.0909 14.674 12.2078 14.6558C12.3247 14.6377 12.4346 14.5888 12.5264 14.5142C12.6181 14.4395 12.6883 14.3418 12.7299 14.2311C12.7714 14.1203 12.7827 14.0005 12.7626 13.884L12.0353 9.64732L15.118 6.64732L15.17 6.59065C15.2442 6.49916 15.293 6.38962 15.3111 6.27318C15.3293 6.15674 15.3162 6.03757 15.2734 5.92781C15.2305 5.81804 15.1593 5.72161 15.067 5.64833C14.9747 5.57505 14.8646 5.52754 14.748 5.51065L10.4946 4.89332L8.5933 1.03999C8.53828 0.928343 8.45311 0.83433 8.34743 0.768589C8.24174 0.702849 8.11976 0.668007 7.9953 0.668007C7.87084 0.668007 7.74886 0.702849 7.64317 0.768589C7.53749 0.83433 7.45232 0.928343 7.3973 1.03999L5.4953 4.89332Z" fill="black"/>
</svg>
