<svg width="51" height="30" viewBox="0 0 51 30" fill="none" xmlns="http://www.w3.org/2000/svg">
<g clip-path="url(#clip0_1106_3799)">
<path fill-rule="evenodd" clip-rule="evenodd" d="M50.0661 16.1356C50.0661 12.6109 48.3588 9.82965 45.0957 9.82965C41.8189 9.82965 39.8362 12.6109 39.8362 16.108C39.8362 20.2523 42.1768 22.3451 45.5363 22.3451C47.1747 22.3451 48.4139 21.9733 49.3501 21.4502V18.6965C48.4139 19.1646 47.3399 19.4538 45.9769 19.4538C44.6414 19.4538 43.4573 18.9857 43.3058 17.361H50.0386C50.0386 17.182 50.0661 16.466 50.0661 16.1356ZM43.2646 14.8276C43.2646 13.2718 44.2146 12.6247 45.0819 12.6247C45.9218 12.6247 46.8167 13.2718 46.8167 14.8276H43.2646Z" fill="white"/>
<path fill-rule="evenodd" clip-rule="evenodd" d="M34.5216 9.82965C33.1722 9.82965 32.3048 10.463 31.8229 10.9036L31.6439 10.05H28.6149V26.1038L32.057 25.3742L32.0707 21.4777C32.5664 21.8357 33.2962 22.3451 34.5077 22.3451C36.9723 22.3451 39.2166 20.3625 39.2166 15.9979C39.2027 12.0051 36.931 9.82965 34.5216 9.82965ZM33.6954 19.316C32.8831 19.316 32.4012 19.0269 32.0707 18.669L32.057 13.5609C32.415 13.1616 32.9106 12.8862 33.6954 12.8862C34.9484 12.8862 35.8157 14.2906 35.8157 16.0943C35.8157 17.9392 34.9621 19.316 33.6954 19.316Z" fill="white"/>
<path fill-rule="evenodd" clip-rule="evenodd" d="M23.8785 9.01731L27.3344 8.27381V5.47882L23.8785 6.20855V9.01731Z" fill="white"/>
<path d="M27.3344 10.0637H23.8785V22.111H27.3344V10.0637Z" fill="white"/>
<path fill-rule="evenodd" clip-rule="evenodd" d="M20.1747 11.0826L19.9545 10.0637H16.9805V22.111H20.4226V13.9464C21.2349 12.8862 22.6117 13.079 23.0385 13.2304V10.0637C22.598 9.89847 20.9871 9.59559 20.1747 11.0826Z" fill="white"/>
<path fill-rule="evenodd" clip-rule="evenodd" d="M13.2906 7.07593L9.93117 7.79187L9.91742 18.8203C9.91742 20.8581 11.4457 22.3588 13.4834 22.3588C14.6124 22.3588 15.4385 22.1522 15.8929 21.9044V19.1094C15.4523 19.2884 13.2769 19.9218 13.2769 17.8841V12.9963H15.8929V10.0637H13.2769L13.2906 7.07593Z" fill="white"/>
<path fill-rule="evenodd" clip-rule="evenodd" d="M3.98339 13.5609C3.98339 13.024 4.42397 12.8174 5.1537 12.8174C6.20009 12.8174 7.52187 13.1341 8.56825 13.6986V10.463C7.4255 10.0087 6.29647 9.82965 5.1537 9.82965C2.35872 9.82965 0.5 11.2892 0.5 13.7262C0.5 17.5262 5.73197 16.9204 5.73197 18.5588C5.73197 19.1922 5.18124 19.3987 4.41021 19.3987C3.26744 19.3987 1.80799 18.9305 0.651451 18.2972V21.5741C1.93191 22.1248 3.22613 22.3589 4.41021 22.3589C7.274 22.3589 9.24288 20.9407 9.24288 18.4762C9.22913 14.3732 3.98339 15.103 3.98339 13.5609Z" fill="white"/>
</g>
<defs>
<clipPath id="clip0_1106_3799">
<rect width="50" height="30" fill="white" transform="translate(0.5)"/>
</clipPath>
</defs>
</svg>
