<svg width="126" height="76" viewBox="0 0 126 76" fill="none" xmlns="http://www.w3.org/2000/svg">
<g clip-path="url(#clip0_1106_3669)">
<path fill-rule="evenodd" clip-rule="evenodd" d="M124.697 40.8564C124.697 31.9891 120.402 24.9921 112.193 24.9921C103.949 24.9921 98.961 31.9891 98.961 40.7871C98.961 51.2132 104.849 56.4781 113.301 56.4781C117.423 56.4781 120.54 55.5429 122.896 54.2267V47.299C120.54 48.4767 117.839 49.2042 114.409 49.2042C111.05 49.2042 108.071 48.0266 107.69 43.9392H124.628C124.628 43.4889 124.697 41.6877 124.697 40.8564ZM107.586 37.5658C107.586 33.6517 109.976 32.0237 112.158 32.0237C114.271 32.0237 116.522 33.6517 116.522 37.5658H107.586Z" fill="#635BFF"/>
<path fill-rule="evenodd" clip-rule="evenodd" d="M85.5904 24.9921C82.1959 24.9921 80.0136 26.5856 78.8013 27.6939L78.351 25.5464H70.7307V65.9343L79.3902 64.0986L79.4248 54.296C80.6718 55.1965 82.5077 56.4781 85.5557 56.4781C91.756 56.4781 97.402 51.4903 97.402 40.51C97.3673 30.465 91.652 24.9921 85.5904 24.9921ZM83.5121 48.8577C81.4685 48.8577 80.2561 48.1303 79.4248 47.2298L79.3902 34.3791C80.2908 33.3745 81.5377 32.6817 83.5121 32.6817C86.6642 32.6817 88.8463 36.2148 88.8463 40.7525C88.8463 45.3939 86.6988 48.8577 83.5121 48.8577Z" fill="#635BFF"/>
<path fill-rule="evenodd" clip-rule="evenodd" d="M58.8152 22.9487L67.5092 21.0782V14.0467L58.8152 15.8825V22.9487Z" fill="#635BFF"/>
<path d="M67.5092 25.581H58.8152V55.8893H67.5092V25.581Z" fill="#635BFF"/>
<path fill-rule="evenodd" clip-rule="evenodd" d="M49.4969 28.1446L48.9428 25.5813H41.4609V55.8896H50.1205V35.3493C52.1641 32.6821 55.6279 33.167 56.7016 33.548V25.5813C55.5933 25.1656 51.5407 24.4036 49.4969 28.1446Z" fill="#635BFF"/>
<path fill-rule="evenodd" clip-rule="evenodd" d="M32.1782 18.0647L23.7266 19.8658L23.692 47.6109C23.692 52.7374 27.5367 56.513 32.6633 56.513C35.5036 56.513 37.5818 55.9933 38.7249 55.3698V48.3383C37.6165 48.7886 32.1436 50.382 32.1436 45.2555V32.959H38.7249V25.5812H32.1436L32.1782 18.0647Z" fill="#635BFF"/>
<path fill-rule="evenodd" clip-rule="evenodd" d="M8.76335 34.3791C8.76335 33.0283 9.87177 32.5086 11.7076 32.5086C14.3401 32.5086 17.6654 33.3053 20.2978 34.7255V26.5856C17.4229 25.4425 14.5825 24.9921 11.7076 24.9921C4.67607 24.9921 -6.10352e-05 28.6639 -6.10352e-05 34.7948C-6.10352e-05 44.3548 13.1624 42.8308 13.1624 46.9526C13.1624 48.5461 11.7769 49.0656 9.83713 49.0656C6.96218 49.0656 3.29056 47.8879 0.380956 46.2946V54.5385C3.60229 55.9239 6.85827 56.5129 9.83713 56.5129C17.0418 56.5129 21.995 52.945 21.995 46.7449C21.9604 36.4227 8.76335 38.2586 8.76335 34.3791Z" fill="#635BFF"/>
</g>
<defs>
<clipPath id="clip0_1106_3669">
<rect width="125.789" height="75.4732" fill="white" transform="translate(-3.05176e-05 0.263306)"/>
</clipPath>
</defs>
</svg>
